Wrong Turn At Tahoe (2010)(Dutch)(MPEG-4)(IPONE) 2Lions-Team

 

liefde.Eer.kracht. angst voor de dood..mensen leven voor verschillende redenen.
het leven wordt een echte uitdaging als je leeft voor vergelding. Joshua (Oscar winner Cuba Gooding Jr.)
hij leeft in een keiharde vijandige wereld met mooie vrouwen.
maar als hij zichzelf terugvindt tijdens een strijd met een meest dominante drugs baas,
dan weet hij dat hierdoor deze geen weg terug is 




PLOT

Wrong Turn At Tahoe (2010)

Love. Honor. Power. Fear of death... People live for all kinds of reasons. 
Life becomes the ultimate battle when all you're living for is revenge. Joshua (Oscar winner Cuba Gooding Jr.), a 
hard-nosed collector for a ruthless mob boss (Miguel Ferrer), 
lives in a world filled with brutal violence and beautiful women. 
But when he finds himself in the middle of a power struggle with the most dominant drug lord in the business (Harvey Keitel), 
Joshua knows that one false move could cause everything to come crashing down. Packed with intense action and gripping suspense, 
this explosive tale of vengeance shows how just one wrong turn can lead to a dead end.

Source.............: Retail | NTSC | DVD9
Audio : English
Subs: Dutch (hardcoded)

Format                           : MPEG-4
Format profile                   : Base Media
Codec ID                         : isom
File size                        : 839 MiB
Duration                         : 1h 30mn
Overall bit rate                 : 1 293 Kbps


Video
ID                               : 1
Format                           : MPEG-4 Visual
Format profile                   : Simple@L1
Format settings, BVOP            : No
Format settings, QPel            : No
Format settings, GMC             : No warppoints
Format settings, Matrix          : Default (H.263)
Codec ID                         : 20
Duration                         : 1h 30mn
Bit rate mode                    : Variable
Bit rate                         : 1 161 Kbps
Width                            : 720 pixels
Height                           : 406 pixels
Display aspect ratio             : 16/9
Frame rate mode                  : Constant
Frame rate                       : 23.976 fps
Resolution                       : 24 bits
Colorimetry                      : 4:2:0
Scan type                        : Progressive
Bits/(Pixel*Frame)               : 0.166
Stream size                      : 753 MiB (90%)
Writing library                  : Lavc51.40.4


Audio
ID                               : 2
Format                           : AAC
Format/Info                      : Advanced Audio Codec
Format version                   : Version 4
Format profile                   : LC
Format settings, SBR             : No
Codec ID                         : 40
Duration                         : 1h 30mn
Bit rate mode                    : Variable
Bit rate                         : 128 Kbps
Channel(s)                       : 2 channels
Channel positions                : L R
Sampling rate                    : 48.0 KHz
Resolution                       : 16 bits
Stream size                      : 82.9 MiB (10%)


Weblink : http://www.imdb.com/title/tt1393000 

*****************************************

Brought to you by
Pioen
2Lions Team

meer zien??
Kom dan eens kijken op ons forum 
 
http://www.2lions.ons-forum.nl


******************************************

DON T HIT AND RUN Niet gelijk afhaken als de film binnen is blijf seeden. 
Don`t quit after you finished the download, but keep seeding.